# xmcd CD database file
# Copyright (C) 1993-1996 Ti Kan
#
# Track frame offsets:
#	182
#	14922
#	36072
#	48580
#	69410
#	81645
#	94720
#	113827
#	126292
#	142635
#	156622
#
# Disc length: 2250 seconds
#
# Revision: 1
# Processed by: cddbd v1.4b41PL1 Copyright (c) Steve Scherf et al.
# Submitted via: CDValet v3.01 - Copyright (c) 1997 Greg Leichner
#
DISCID=9a08c80b
DTITLE=Red Steagall - Faith and Values
DYEAR=1900
DGENRE=
TTITLE0=A Long Way From Montana
TTITLE1=The Fence That Me and Shorty Built
TTITLE2=The Narrow Trail
TTITLE3=Paw-Paw
TTITLE4=He Was There
TTITLE5=The Real America
TTITLE6=The Rider On the Rim
TTITLE7=Now That I Have Accepted Your Love
TTITLE8=The Bay
TTITLE9=Cowboy Church
TTITLE10=The Big Circle
EXTD=
EXTT0=
EXTT1=
EXTT2=
EXTT3=
EXTT4=
EXTT5=
EXTT6=
EXTT7=
EXTT8=
EXTT9=
EXTT10=
PLAYORDER=
